<?xml version="1.0" encoding="UTF-8"?>
<svg width="480px" height="150px" viewBox="0 0 480 150" version="1.1" xmlns="http://www.w3.org/2000/svg" xmlns:xlink="http://www.w3.org/1999/xlink">
    <!-- Generator: Sketch 51.1 (57501) - http://www.bohemiancoding.com/sketch -->
    <title>БелНЕ_ЧернПРОД</title>
    <desc>Created with Sketch.</desc>
    <defs>
        <linearGradient x1="104.375%" y1="138.2%" x2="15.8625%" y2="-5.38%" id="linearGradient-1">
            <stop stop-color="#07A4CC" offset="0%"></stop>
            <stop stop-color="#129BC8" offset="0%"></stop>
            <stop stop-color="#5C63AB" offset="71%"></stop>
            <stop stop-color="#5F61AA" offset="83%"></stop>
            <stop stop-color="#6F54A3" offset="97%"></stop>
        </linearGradient>
        <linearGradient x1="161.444837%" y1="275.692608%" x2="0.0981546918%" y2="-51.0371711%" id="linearGradient-2">
            <stop stop-color="#07A4CC" offset="0%"></stop>
            <stop stop-color="#119CC8" offset="0%"></stop>
            <stop stop-color="#1599C6" offset="0%"></stop>
            <stop stop-color="#129BC8" offset="25%"></stop>
            <stop stop-color="#5C63AB" offset="58%"></stop>
            <stop stop-color="#5F61AA" offset="75%"></stop>
            <stop stop-color="#6F54A3" offset="100%"></stop>
        </linearGradient>
        <linearGradient x1="104.466609%" y1="249.798134%" x2="-14.3394045%" y2="-76.9316442%" id="linearGradient-3">
            <stop stop-color="#07A4CC" offset="0%"></stop>
            <stop stop-color="#119CC8" offset="0%"></stop>
            <stop stop-color="#1599C6" offset="0%"></stop>
            <stop stop-color="#129BC8" offset="25%"></stop>
            <stop stop-color="#5C63AB" offset="58%"></stop>
            <stop stop-color="#5F61AA" offset="75%"></stop>
            <stop stop-color="#6F54A3" offset="100%"></stop>
        </linearGradient>
        <linearGradient x1="89.1888131%" y1="186.823301%" x2="-25.1704466%" y2="-97.4082597%" id="linearGradient-4">
            <stop stop-color="#07A4CC" offset="0%"></stop>
            <stop stop-color="#119CC8" offset="0%"></stop>
            <stop stop-color="#1599C6" offset="0%"></stop>
            <stop stop-color="#129BC8" offset="25%"></stop>
            <stop stop-color="#5C63AB" offset="58%"></stop>
            <stop stop-color="#5F61AA" offset="75%"></stop>
            <stop stop-color="#6F54A3" offset="100%"></stop>
        </linearGradient>
        <linearGradient x1="91.4421152%" y1="168.754119%" x2="-17.1269438%" y2="-142.286716%" id="linearGradient-5">
            <stop stop-color="#07A4CC" offset="0%"></stop>
            <stop stop-color="#119CC8" offset="0%"></stop>
            <stop stop-color="#1599C6" offset="0%"></stop>
            <stop stop-color="#129BC8" offset="25%"></stop>
            <stop stop-color="#5C63AB" offset="58%"></stop>
            <stop stop-color="#5F61AA" offset="75%"></stop>
            <stop stop-color="#6F54A3" offset="100%"></stop>
        </linearGradient>
    </defs>
    <g id="Page-1" stroke="none" stroke-width="1" fill="none" fill-rule="evenodd">
        <g id="БелНЕ_ЧернПРОД" fill-rule="nonzero">
            <rect id="Rectangle-path" fill="url(#linearGradient-1)" x="0.77" y="0" width="160" height="150"></rect>
            <polygon id="Shape" fill="#FFFFFF" points="29.92 38.5 37.1 38.5 37.1 68.63 73.67 68.63 73.67 38.5 80.85 38.5 80.85 110.33 73.67 110.33 73.67 75.66 37.1 75.66 37.1 110.33 29.92 110.33"></polygon>
            <polygon id="Shape" fill="#FFFFFF" points="94.65 38.5 135.81 38.5 135.81 45.5 101.81 45.5 101.81 68 135.5 68 135.5 75 101.83 75 101.83 103.22 135.52 103.22 135.52 110.22 94.65 110.22"></polygon>
            <polygon id="Shape" fill="url(#linearGradient-2)" points="184.06 38.49 191.24 38.49 191.24 68.62 227.81 68.62 227.81 38.49 235 38.49 235 110.32 227.82 110.32 227.82 75.65 191.24 75.65 191.24 110.32 184.06 110.32"></polygon>
            <path d="M282.82,38.49 L316.31,110.32 L308.56,110.32 L297.26,86.69 L266.32,86.69 L255.13,110.32 L247.13,110.32 L281.07,38.49 L282.82,38.49 Z M281.91,53.75 L269.6,79.75 L294.16,79.75 L281.91,53.75 Z" id="Shape" fill="url(#linearGradient-3)"></path>
            <path d="M334.25,121.06 L327.17,121.06 L327.17,103.63 L333,103.63 L361.18,38.49 L363.67,38.49 L393.44,103.63 L399.04,103.63 L399.04,121.06 L392,121.06 L392,110.32 L334.25,110.32 L334.25,121.06 Z M341.11,103.63 L385,103.63 L362.47,53.27 L341.11,103.63 Z" id="Shape" fill="url(#linearGradient-4)"></path>
            <path d="M441.45,36.69 C452.33,36.69 461.436667,40.3166667 468.77,47.57 C476.003591,54.5893503 479.989005,64.3028893 479.77,74.38 C479.674225,89.6599584 470.435442,103.396248 456.319444,109.246455 C442.203447,115.096662 425.9564,111.922671 415.08,101.19 C407.907226,94.2697995 403.92438,84.6856233 404.08,74.72 C404.036797,67.9957718 405.76102,61.3782034 409.08,55.53 C415.659951,43.8493528 428.043623,36.6418031 441.45,36.69 Z M441.77,43.69 C430.92437,43.787572 420.937904,49.6098414 415.51,59 C412.816929,63.7859714 411.436975,69.1988416 411.51,74.69 C411.445897,82.7531882 414.608981,90.5071688 420.294708,96.2248275 C425.980435,101.942486 433.716579,105.148945 441.78,105.13 C447.202491,105.185402 452.54314,103.805389 457.26,101.13 C461.912311,98.5136742 465.750441,94.6617001 468.35,90 C471.034157,85.2322235 472.413858,79.8410434 472.35,74.37 C472.419982,68.9489079 471.038941,63.6077311 468.35,58.9 C465.673294,54.268353 461.797252,50.4441297 457.13,47.83 C452.470386,45.1036388 447.168615,43.6677423 441.77,43.67 L441.77,43.69 Z" id="Shape" fill="url(#linearGradient-5)"></path>
            <path d="M184.06,128.22 L186.35,128.22 C187.240087,128.189882 188.130988,128.246819 189.01,128.39 C189.640627,128.540599 190.205493,128.891448 190.62,129.39 C191.048553,129.924224 191.268837,130.595733 191.24,131.28 C191.268707,131.965671 191.052475,132.639182 190.63,133.18 C190.201008,133.695848 189.607975,134.048843 188.95,134.18 C187.985684,134.342666 187.007265,134.40633 186.03,134.37 L185.21,134.37 L185.21,139.71 L184.06,139.71 L184.06,128.22 Z M185.21,129.35 L185.21,133.25 L187.16,133.25 C187.741894,133.280586 188.324538,133.206062 188.88,133.03 C189.235743,132.902611 189.538532,132.659675 189.74,132.34 C189.950335,132.022921 190.061714,131.650496 190.06,131.27 C190.061546,130.892644 189.950095,130.523465 189.74,130.21 C189.549367,129.898906 189.260998,129.659771 188.92,129.53 C188.376,129.365623 187.807386,129.297931 187.24,129.33 L185.21,129.35 Z" id="Shape" fill="#000000"></path>
            <path d="M215.06,128.28 L217.35,128.28 C218.219407,128.252234 219.089554,128.302435 219.95,128.43 C220.598724,128.570512 221.182531,128.922203 221.61,129.43 C222.045729,129.9614 222.273214,130.633191 222.25,131.32 C222.261782,131.900478 222.109252,132.472465 221.81,132.97 C221.509752,133.449887 221.070161,133.826679 220.55,134.05 C219.825901,134.324683 219.053846,134.450525 218.28,134.42 L222.41,139.76 L221,139.76 L216.87,134.42 L216.22,134.42 L216.22,139.76 L215.07,139.76 L215.06,128.28 Z M216.21,129.4 L216.21,133.31 L218.21,133.31 C218.785311,133.340146 219.361316,133.265604 219.91,133.09 C220.266463,132.958671 220.569046,132.712383 220.77,132.39 C220.978487,132.072578 221.086514,131.699711 221.08,131.32 C221.08688,130.946479 220.978649,130.579889 220.77,130.27 C220.573973,129.963627 220.287357,129.725945 219.95,129.59 C219.401656,129.430075 218.830526,129.362486 218.26,129.39 L216.21,129.4 Z" id="Shape" fill="#000000"></path>
            <path d="M251.05,128 C252.682774,127.961055 254.260865,128.589403 255.42,129.74 C257.759258,132.117776 257.759258,135.932224 255.42,138.31 C254.297245,139.462022 252.748383,140.098937 251.14,140.07 C249.521284,140.101936 247.960117,139.469519 246.82,138.32 C245.673151,137.210243 245.036171,135.675699 245.06,134.08 C245.05452,133.004429 245.330303,131.946111 245.86,131.01 C246.378326,130.090059 247.134809,129.326667 248.05,128.8 C248.958716,128.265657 249.99588,127.98908 251.05,128 Z M251.11,129.11 C250.257837,129.112212 249.421962,129.343632 248.69,129.78 C247.943912,130.205747 247.325747,130.823912 246.9,131.57 C246.469885,132.335921 246.249144,133.20164 246.26,134.08 C246.249294,135.371386 246.75619,136.613277 247.667488,137.528333 C248.578787,138.44339 249.818581,138.955392 251.11,138.95 C251.976137,138.954071 252.828061,138.729881 253.58,138.3 C254.324065,137.883923 254.939738,137.271709 255.36,136.53 C255.790879,135.757133 256.011552,134.884786 256,134 C256.008062,133.134653 255.787274,132.282547 255.36,131.53 C254.929454,130.789359 254.307772,130.178038 253.56,129.76 C252.815814,129.327823 251.970575,129.100126 251.11,129.1 L251.11,129.11 Z" id="Shape" fill="#000000"></path>
            <path d="M280.68,139.77 L280.68,128.28 L283.06,128.28 C284.32047,128.219165 285.582646,128.357532 286.8,128.69 C287.874287,129.041368 288.797828,129.746361 289.42,130.69 C290.068674,131.721272 290.395886,132.92221 290.36,134.14 C290.376415,135.188353 290.117826,136.222707 289.61,137.14 C289.170774,137.959364 288.499364,138.630774 287.68,139.07 C286.632086,139.540961 285.487473,139.756861 284.34,139.7 L280.68,139.77 Z M281.78,138.68 L283.11,138.68 C284.218533,138.73092 285.328822,138.629985 286.41,138.38 C287.229722,138.120176 287.935616,137.587225 288.41,136.87 C288.928322,136.074447 289.1901,135.139029 289.16,134.19 C289.188609,133.179419 288.905835,132.184475 288.35,131.34 C287.814125,130.558346 287.021689,129.988782 286.11,129.73 C284.943249,129.462422 283.746055,129.351446 282.55,129.4 L281.74,129.4 L281.78,138.68 Z" id="Shape" fill="#000000"></path>
            <path d="M313.81,128.28 L315,128.28 L315,135.21 C315,136.04 315,136.55 315,136.75 C315.040852,137.156386 315.177974,137.547183 315.4,137.89 C315.658205,138.229371 316.003886,138.492089 316.4,138.65 C316.807545,138.851236 317.255488,138.957238 317.71,138.96 C318.086492,138.960489 318.45853,138.878572 318.8,138.72 C319.138818,138.563737 319.439216,138.335025 319.68,138.05 C319.915528,137.754361 320.088988,137.414242 320.19,137.05 C320.294499,136.456047 320.334731,135.852568 320.31,135.25 L320.31,128.32 L321.46,128.32 L321.46,135.25 C321.484417,136.090302 321.383303,136.929544 321.16,137.74 C320.653643,139.172721 319.289402,140.122458 317.77,140.1 C316.927333,140.121152 316.097878,139.88765 315.39,139.43 C314.75086,139.020827 314.279122,138.396572 314.06,137.67 C313.884271,136.876019 313.813667,136.062383 313.85,135.25 L313.81,128.28 Z" id="Shape" fill="#000000"></path>
            <path d="M356.08,130.41 L355.17,131.1 C354.694942,130.471782 354.078193,129.964677 353.37,129.62 C352.646904,129.283207 351.857646,129.112373 351.06,129.12 C350.166872,129.112915 349.287543,129.340506 348.51,129.78 C347.757353,130.194991 347.131704,130.806814 346.7,131.55 C346.262807,132.313499 346.038346,133.180265 346.05,134.06 C346.015818,135.377374 346.538635,136.648108 347.49,137.56 C348.46217,138.503781 349.77574,139.012609 351.13,138.97 C352.681078,138.979739 354.15262,138.284436 355.13,137.08 L356.04,137.77 C355.466919,138.495285 354.730122,139.074441 353.89,139.46 C352.989365,139.869442 352.009232,140.074348 351.02,140.06 C349.212961,140.145008 347.464027,139.410162 346.26,138.06 C345.28643,136.922887 344.766574,135.466579 344.8,133.97 C344.764944,132.367244 345.407633,130.824064 346.57,129.72 C347.752812,128.57041 349.35134,127.949762 351,128 C352.005537,127.983468 353.00134,128.199054 353.91,128.63 C354.770388,129.033193 355.516333,129.645074 356.08,130.41 Z" id="Shape" fill="#000000"></path>
            <polygon id="Shape" fill="#000000" points="378.34 129.4 378.34 128.28 384.64 128.28 384.64 129.4 382.08 129.4 382.08 139.77 380.91 139.77 380.91 129.4"></polygon>
            <polygon id="Shape" fill="#000000" points="410.37 128.28 411.52 128.28 411.52 139.77 410.37 139.77"></polygon>
            <path d="M439.9,128 C441.532774,127.961055 443.110865,128.589403 444.27,129.74 C446.609258,132.117776 446.609258,135.932224 444.27,138.31 C443.147245,139.462022 441.598383,140.098937 439.99,140.07 C438.371067,140.103114 436.809454,139.470516 435.67,138.32 C434.523151,137.210243 433.886171,135.675699 433.91,134.08 C433.90452,133.004429 434.180303,131.946111 434.71,131.01 C435.228326,130.090059 435.984809,129.326667 436.9,128.8 C437.808716,128.265657 438.84588,127.98908 439.9,128 Z M439.95,129.11 C438.215691,129.137505 436.622302,130.070775 435.75,131.57 C435.319885,132.335921 435.099144,133.20164 435.11,134.08 C435.099316,135.369647 435.604845,136.610005 436.513973,137.524768 C437.423101,138.439531 438.660311,138.952714 439.95,138.95 C440.819464,138.955359 441.674941,138.731141 442.43,138.3 C443.174065,137.883923 443.789738,137.271709 444.21,136.53 C444.634017,135.762086 444.851117,134.897131 444.84,134.02 C444.85111,133.155562 444.633786,132.303514 444.21,131.55 C443.779454,130.809359 443.157772,130.198038 442.41,129.78 C441.679303,129.348001 440.848737,129.113651 440,129.1 L439.95,129.11 Z" id="Shape" fill="#000000"></path>
            <polygon id="Shape" fill="#000000" points="467.54 139.77 467.54 128.28 467.79 128.28 475.43 137.08 475.43 128.28 476.57 128.28 476.57 139.77 476.31 139.77 468.72 131.07 468.72 139.77"></polygon>
        </g>
    </g>
</svg>