<?xml version="1.0" encoding="utf-8"?>
<!-- Generator: Adobe Illustrator 21.0.0, SVG Export Plug-In . SVG Version: 6.00 Build 0)  -->
<svg version="1.1" id="Слой_1" xmlns="http://www.w3.org/2000/svg" xmlns:xlink="http://www.w3.org/1999/xlink" x="0px" y="0px"
	 viewBox="0 0 1000 1000" style="enable-background:new 0 0 1000 1000;" xml:space="preserve">
<style type="text/css">
	.st0{fill:#FFFFFF;}
</style>
<path class="st0" d="M20.6,114.2L21,730.3c0,0-5,32.3,22.1,59.3s129.1,84,129.1,84s27,21,27,0s0-609.3,0-609.3s3-39-15-57
	S20.6,114.2,20.6,114.2z"/>
<path class="st0" d="M282.4,267.8l0.3,495.2c0,0-4.7,26.8,22.3,47.8c27,21,128.9,65.4,128.9,65.4s27,16.3,27,0s0-474.1,0-474.1
	s3-30.4-15-44.4C428,343.7,282.4,267.8,282.4,267.8z"/>
<path class="st0" d="M976,114l-0.4,616.1c0,0,5,32.3-22.1,59.3s-129.1,84-129.1,84s-27,21-27,0c0-21,0-609.3,0-609.3s-3-39,15-57
	S976,114,976,114z"/>
<path class="st0" d="M714.2,267.6l-0.3,495.2c0,0,4.7,26.8-22.3,47.8c-27,21-128.9,65.4-128.9,65.4s-27,16.3-27,0s0-474.1,0-474.1
	s-3-30.4,15-44.4C568.6,343.5,714.2,267.6,714.2,267.6z"/>
</svg>
